<svg width="50" height="16" viewBox="0 0 50 16" fill="none" xmlns="http://www.w3.org/2000/svg">
<path d="M12.8437 1.40115L7.87471 11.8511C7.79028 8.85856 7.58612 4.99052 7.35723 2.00574C7.15142 -0.433675 5.29819 -0.163096 3.51752 0.413339C2.45914 0.756094 1.29489 1.27362 0.402083 1.62026C-0.170476 1.84262 -0.12727 2.58185 0.504326 2.74465C2.13625 3.16541 2.14417 4.07942 2.33876 5.58022L3.32425 13.1833C3.45848 14.2187 3.60228 15.2168 4.70386 15.5463C6.54786 16.0982 10.4235 16.1419 11.9192 13.4623L19.0291 0.726641C19.8397 -0.725615 13.3856 0.261867 12.8437 1.40115Z" fill="#1B221B"/>
<path d="M32.8652 6.43405C33.2821 4.82287 33.1291 3.10943 31.9411 1.82094C30.6921 0.465783 28.7808 3.8147e-05 26.951 3.8147e-05C23.5357 3.8147e-05 20.5361 1.52674 18.5948 4.17297C17.2857 5.9573 16.5822 7.98987 16.6165 9.84606C16.6954 14.1494 20.5225 15.8072 24.3975 15.6894C26.8326 15.6156 29.7264 14.376 30.5549 12.7768C30.978 11.9602 30.6165 10.3306 29.2541 11.1452C27.3115 12.3065 21.7346 12.6311 21.3527 9.88554L30.0186 8.68445C31.4747 8.48281 32.4998 7.84682 32.8652 6.43437V6.43405ZM27.7857 5.5757L22.2056 6.40006C22.7105 4.86689 24.0601 3.8095 25.8035 3.8095C26.9302 3.8095 27.9051 4.41927 27.7857 5.5757Z" fill="#1B221B"/>
<path d="M49.926 4.61444C49.4178 1.35358 46.612 3.8147e-05 43.4079 3.8147e-05C39.7614 3.8147e-05 36.5105 1.61736 34.5194 4.58434C33.3225 6.36737 32.5072 8.99095 32.8376 11.1112C33.3495 14.3948 36.1506 15.6952 39.3637 15.6952C43.0401 15.6952 46.2367 14.1795 48.2324 11.187C49.428 9.39423 50.2578 6.74476 49.926 4.61444ZM42.7318 10.7199C41.6717 11.8116 39.3891 12.3023 38.6081 10.7351C37.8591 9.23175 38.8911 6.25636 40.0461 5.09928C40.7014 4.4429 41.4725 4.11439 42.3601 4.11439C43.2476 4.11439 43.8495 4.44258 44.1661 5.09928C44.8937 6.60817 43.867 9.5512 42.7321 10.7199H42.7318Z" fill="#1B221B"/>
</svg>
